<?xml version="1.0" encoding="UTF-8"?>
<svg id="Layer_2" data-name="Layer 2" xmlns="http://www.w3.org/2000/svg" viewBox="0 0 345.29 345.29">
  <defs>
    <style>
      .cls-1 {
        fill: #09072d;
      }
    </style>
  </defs>
  <g id="Layer_1-2" data-name="Layer 1">
    <polygon class="cls-1" points="172.65 0 189.89 41.66 217.33 5.88 223.2 50.59 258.97 23.13 253.07 67.83 294.72 50.57 277.46 92.22 322.16 86.32 294.71 122.09 339.41 127.96 303.63 155.4 345.29 172.65 303.63 189.89 339.41 217.33 294.71 223.2 322.16 258.97 277.46 253.07 294.72 294.72 253.07 277.46 258.97 322.16 223.2 294.71 217.33 339.41 189.89 303.63 172.65 345.29 155.4 303.63 127.96 339.41 122.09 294.71 86.32 322.16 92.22 277.46 50.57 294.72 67.83 253.07 23.13 258.97 50.59 223.2 5.88 217.33 41.66 189.89 0 172.65 41.66 155.4 5.88 127.96 50.59 122.09 23.13 86.32 67.83 92.22 50.57 50.57 92.22 67.83 86.32 23.13 122.09 50.59 127.96 5.88 155.4 41.66 172.65 0"/>
  </g>
</svg>